<svg xmlns="http://www.w3.org/2000/svg" version="1.1" xmlns:xlink="http://www.w3.org/1999/xlink" xmlns:svgjs="http://svgjs.com/svgjs" width="1440" height="560" preserveAspectRatio="none" viewBox="0 0 1440 560"><g mask="url(&quot;#SvgjsMask1000&quot;)" fill="none"><rect width="1440" height="560" x="0" y="0" fill="#0e2a47"></rect><path d="M 0,54 C 57.6,82.2 172.8,205.8 288,195 C 403.2,184.2 460.8,-14 576,0 C 691.2,14 748.8,241.6 864,265 C 979.2,288.4 1036.8,140 1152,117 C 1267.2,94 1382.4,143.4 1440,150L1440 560L0 560z" fill="#184a7e"></path><path d="M 0,407 C 96,435.8 288,575.8 480,551 C 672,526.2 768,289 960,283 C 1152,277 1344,473.4 1440,521L1440 560L0 560z" fill="#2264ab"></path></g><defs><mask id="SvgjsMask1000"><rect width="1440" height="560" fill="#ffffff"></rect></mask></defs></svg>